<svg width="1200" height="205" viewBox="0 0 1200 205" fill="none" xmlns="http://www.w3.org/2000/svg">
  <style>
    .title{font:700 30px -apple-system,BlinkMacSystemFont,"Segoe UI",sans-serif;letter-spacing:-.7px}
    .eyebrow{font:600 11px -apple-system,BlinkMacSystemFont,"Segoe UI",sans-serif;letter-spacing:1.15px}
    .body{font:400 15px -apple-system,BlinkMacSystemFont,"Segoe UI",sans-serif}
    .tag{font:600 11px -apple-system,BlinkMacSystemFont,"Segoe UI",sans-serif}
    .link{font:600 13px -apple-system,BlinkMacSystemFont,"Segoe UI",sans-serif}
  </style>
  <rect x="1" y="1" width="1198" height="203" rx="24" fill="#111116" stroke="#2D2D34" stroke-width="2"/>
  <rect x="36" y="28" width="34" height="4" rx="2" fill="#A78BFA"/>
  <text x="36" y="55" class="eyebrow" fill="#72727B">OPENWRT · NETWORKING</text>
  <text x="36" y="95" class="title" fill="#F5F5F7">z2kOW</text>
  <text x="36" y="122" class="body" fill="#A1A1AA">OpenWrt adaptation of z2k with platform parity, package lifecycle,</text>
  <text x="36" y="143" class="body" fill="#A1A1AA">traffic handling, WebUI, diagnostics, and reproducible validation.</text>
  <rect x="36" y="148" width="68" height="28" rx="14" fill="#1B1B21"/><text x="46" y="167" class="tag" fill="#A1A1AA">OpenWrt</text><rect x="112.4" y="148" width="54" height="28" rx="14" fill="#1B1B21"/><text x="122.4" y="167" class="tag" fill="#A1A1AA">Shell</text><rect x="174.4" y="148" width="32" height="28" rx="14" fill="#1B1B21"/><text x="184.4" y="167" class="tag" fill="#A1A1AA">CI</text>
  <text x="934" y="175" class="link" fill="#A78BFA">Open repository →</text>
  <rect x="992" y="34" width="132" height="116" rx="28" fill="#19191F"/>
  <g transform="translate(1016 64)">
      <path d="M8 62L36 30L66 48L94 12" stroke="#A78BFA" stroke-width="3" stroke-linecap="round" stroke-linejoin="round"/>
      <circle cx="8" cy="62" r="6" fill="#111116" stroke="#A78BFA" stroke-width="2.5"/>
      <circle cx="36" cy="30" r="6" fill="#111116" stroke="#A78BFA" stroke-width="2.5"/>
      <circle cx="66" cy="48" r="6" fill="#111116" stroke="#A78BFA" stroke-width="2.5"/>
      <circle cx="94" cy="12" r="6" fill="#A78BFA"/>
    </g>
</svg>